<svg width="746" height="688" viewBox="0 0 746 688" fill="none" xmlns="http://www.w3.org/2000/svg">
<g clip-path="url(#clip0_20005129_403)">
<g opacity="0.4" filter="url(#filter0_f_20005129_403)">
<rect x="105" y="209.027" width="173" height="558" rx="24" fill="#0B0F19"/>
</g>
<g clip-path="url(#clip1_20005129_403)">
<rect x="114.708" y="135.603" width="395.97" height="800.649"/>
<mask id="mask0_20005129_403" style="mask-type:alpha" maskUnits="userSpaceOnUse" x="114" y="135" width="397" height="802">
<rect x="114.708" y="135.603" width="395.97" height="800.649"/>
</mask>
<g mask="url(#mask0_20005129_403)">
<rect x="114.708" y="135.603" width="395.97" height="800.649" fill="#080032" fill-opacity="0.01"/>
</g>
<path fill-rule="evenodd" clip-rule="evenodd" d="M136.036 535.865C136.036 429.701 136.036 323.537 136.037 217.372C136.037 209.402 135.956 201.424 136.94 193.494C138.176 183.536 141.567 174.55 148.911 167.377C155.228 161.205 162.952 157.946 171.524 156.478C175.903 155.728 180.323 155.388 184.769 155.313C193.645 155.164 202.518 155.129 211.396 155.258C214.878 155.307 217.028 157.721 217.175 160.753C217.295 163.269 217.36 165.794 217.891 168.305C219.605 176.405 226.529 182.861 235.066 183.713C237.597 183.965 240.122 184.075 242.657 184.075C289.128 184.076 335.597 184.075 382.067 184.071C385.598 184.071 389.122 184.025 392.57 183.095C401.04 180.81 406.648 173.316 407.069 164.533C407.146 162.906 407.215 161.268 407.458 159.66C407.827 157.226 409.552 155.643 411.985 155.365C412.974 155.252 413.973 155.184 414.968 155.181C424.569 155.155 434.176 154.987 443.769 155.457C451.402 155.831 458.913 157.039 465.832 160.529C477.084 166.203 483.69 175.469 486.476 187.632C487.88 193.764 488.169 200.001 488.309 206.251C488.397 210.144 488.402 214.04 488.402 217.935C488.41 430.719 488.414 643.502 488.415 856.286C488.415 863.713 488.431 871.145 487.51 878.532C486.267 888.489 482.873 897.48 475.533 904.647C469.645 910.395 462.489 913.657 454.512 915.237C447.643 916.599 440.669 916.852 433.693 916.862C412.224 916.891 390.756 916.882 369.287 916.883C311.041 916.884 252.796 916.881 194.549 916.887C187.391 916.888 180.233 916.818 173.133 915.793C162.081 914.196 152.506 909.818 145.483 900.783C141.165 895.229 138.727 888.862 137.486 881.999C136.061 874.114 136.064 866.135 136.061 858.165C136.038 814.594 136.047 771.024 136.047 727.451C136.046 663.59 136.047 599.727 136.047 535.865H136.036Z" fill="#0B0F19"/>
<mask id="mask1_20005129_403" style="mask-type:luminance" maskUnits="userSpaceOnUse" x="136" y="155" width="353" height="762">
<path fill-rule="evenodd" clip-rule="evenodd" d="M136.036 535.865C136.036 429.701 136.036 323.537 136.037 217.372C136.037 209.402 135.956 201.424 136.94 193.494C138.176 183.536 141.567 174.55 148.911 167.377C155.228 161.205 162.952 157.946 171.524 156.478C175.903 155.728 180.323 155.388 184.769 155.313C193.645 155.164 202.518 155.129 211.396 155.258C214.878 155.307 217.028 157.721 217.175 160.753C217.295 163.269 217.36 165.794 217.891 168.305C219.605 176.405 226.529 182.861 235.066 183.713C237.597 183.965 240.122 184.075 242.657 184.075C289.128 184.076 335.597 184.075 382.067 184.071C385.598 184.071 389.122 184.025 392.57 183.095C401.04 180.81 406.648 173.316 407.069 164.533C407.146 162.906 407.215 161.268 407.458 159.66C407.827 157.226 409.552 155.643 411.985 155.365C412.974 155.252 413.973 155.184 414.968 155.181C424.569 155.155 434.176 154.987 443.769 155.457C451.402 155.831 458.913 157.039 465.832 160.529C477.084 166.203 483.69 175.469 486.476 187.632C487.88 193.764 488.169 200.001 488.309 206.251C488.397 210.144 488.402 214.04 488.402 217.935C488.41 430.719 488.414 643.502 488.415 856.286C488.415 863.713 488.431 871.145 487.51 878.532C486.267 888.489 482.873 897.48 475.533 904.647C469.645 910.395 462.489 913.657 454.512 915.237C447.643 916.599 440.669 916.852 433.693 916.862C412.224 916.891 390.756 916.882 369.287 916.883C311.041 916.884 252.796 916.881 194.549 916.887C187.391 916.888 180.233 916.818 173.133 915.793C162.081 914.196 152.506 909.818 145.483 900.783C141.165 895.229 138.727 888.862 137.486 881.999C136.061 874.114 136.064 866.135 136.061 858.165C136.038 814.594 136.047 771.024 136.047 727.451C136.046 663.59 136.047 599.727 136.047 535.865H136.036Z" fill="white"/>
</mask>
<g mask="url(#mask1_20005129_403)">
<path d="M135.938 154.017L488.365 154.017L488.365 915.749H135.938L135.938 154.017Z"/>
<g opacity="0.4" filter="url(#filter1_f_20005129_403)">
<rect x="330.366" y="192.188" width="173.294" height="557.606" rx="24" fill="#0B0F19"/>
</g>
</g>
</g>
<g clip-path="url(#clip2_20005129_403)">
<rect x="343.717" width="402.286" height="813.421"/>
<mask id="mask2_20005129_403" style="mask-type:alpha" maskUnits="userSpaceOnUse" x="343" y="0" width="404" height="814">
<rect x="343.717" width="402.286" height="813.421"/>
</mask>
<g mask="url(#mask2_20005129_403)">
<rect x="343.717" width="402.286" height="813.421" fill="#080032" fill-opacity="0.01"/>
</g>
<path fill-rule="evenodd" clip-rule="evenodd" d="M365.378 406.651C365.378 298.793 365.378 190.935 365.38 83.0763C365.38 74.9796 365.298 66.8747 366.298 58.8183C367.553 48.7013 370.998 39.5715 378.459 32.2846C384.877 26.0136 392.724 22.7027 401.433 21.2117C405.882 20.449 410.372 20.1038 414.89 20.0279C423.907 19.8761 432.922 19.8404 441.941 19.9715C445.479 20.0222 447.663 22.4737 447.812 25.5546C447.934 28.1109 448 30.6763 448.54 33.2268C450.28 41.4559 457.315 48.0157 465.988 48.8808C468.56 49.1374 471.125 49.2489 473.701 49.2489C520.912 49.2501 568.123 49.2489 615.334 49.2443C618.921 49.2443 622.502 49.1983 626.005 48.2527C634.61 45.9311 640.308 38.3175 640.735 29.3947C640.813 27.7416 640.883 26.078 641.131 24.4444C641.506 21.971 643.258 20.3627 645.73 20.0808C646.734 19.9658 647.749 19.8968 648.76 19.8933C658.515 19.8669 668.275 19.6966 678.02 20.174C685.775 20.5537 693.406 21.7812 700.435 25.3268C711.867 31.0916 718.579 40.5056 721.409 52.8625C722.836 59.0921 723.129 65.4287 723.272 71.7779C723.36 75.7331 723.366 79.6917 723.366 83.6492C723.374 299.827 723.377 516.004 723.379 732.182C723.379 739.728 723.395 747.278 722.459 754.784C721.196 764.9 717.748 774.034 710.291 781.315C704.309 787.155 697.039 790.469 688.935 792.074C681.956 793.458 674.872 793.714 667.784 793.725C645.973 793.755 624.162 793.745 602.351 793.747C543.176 793.748 484.001 793.744 424.825 793.75C417.553 793.751 410.281 793.68 403.068 792.639C391.84 791.017 382.111 786.569 374.976 777.39C370.59 771.747 368.113 765.278 366.852 758.306C365.404 750.295 365.407 742.189 365.404 734.092C365.381 689.826 365.39 645.56 365.39 601.293C365.389 536.413 365.39 471.531 365.39 406.651H365.378Z" fill="#0B0F19"/>
<mask id="mask3_20005129_403" style="mask-type:luminance" maskUnits="userSpaceOnUse" x="365" y="19" width="359" height="775">
<path fill-rule="evenodd" clip-rule="evenodd" d="M365.378 406.651C365.378 298.793 365.378 190.935 365.38 83.0763C365.38 74.9796 365.298 66.8747 366.298 58.8183C367.553 48.7013 370.998 39.5715 378.459 32.2846C384.877 26.0136 392.724 22.7027 401.433 21.2117C405.882 20.449 410.372 20.1038 414.89 20.0279C423.907 19.8761 432.922 19.8404 441.941 19.9715C445.479 20.0222 447.663 22.4737 447.812 25.5546C447.934 28.1109 448 30.6763 448.54 33.2268C450.28 41.4559 457.315 48.0157 465.988 48.8808C468.56 49.1374 471.125 49.2489 473.701 49.2489C520.912 49.2501 568.123 49.2489 615.334 49.2443C618.921 49.2443 622.502 49.1983 626.005 48.2527C634.61 45.9311 640.308 38.3175 640.735 29.3947C640.813 27.7416 640.883 26.078 641.131 24.4444C641.506 21.971 643.258 20.3627 645.73 20.0808C646.734 19.9658 647.749 19.8968 648.76 19.8933C658.515 19.8669 668.275 19.6966 678.02 20.174C685.775 20.5537 693.406 21.7812 700.435 25.3268C711.867 31.0916 718.579 40.5056 721.409 52.8625C722.836 59.0921 723.129 65.4287 723.272 71.7779C723.36 75.7331 723.366 79.6917 723.366 83.6492C723.374 299.827 723.377 516.004 723.379 732.182C723.379 739.728 723.395 747.278 722.459 754.784C721.196 764.9 717.748 774.034 710.291 781.315C704.309 787.155 697.039 790.469 688.935 792.074C681.956 793.458 674.872 793.714 667.784 793.725C645.973 793.755 624.162 793.745 602.351 793.747C543.176 793.748 484.001 793.744 424.825 793.75C417.553 793.751 410.281 793.68 403.068 792.639C391.84 791.017 382.111 786.569 374.976 777.39C370.59 771.747 368.113 765.278 366.852 758.306C365.404 750.295 365.407 742.189 365.404 734.092C365.381 689.826 365.39 645.56 365.39 601.293C365.389 536.413 365.39 471.531 365.39 406.651H365.378Z" fill="white"/>
</mask>
<g mask="url(#mask3_20005129_403)">
<path d="M365.281 18.7295H724.507V792.613H365.281V18.7295Z"/>
</g>
</g>
</g>
<defs>
<filter id="filter0_f_20005129_403" x="35" y="139.027" width="313" height="698" filterUnits="userSpaceOnUse" color-interpolation-filters="sRGB">
<feFlood flood-opacity="0" result="BackgroundImageFix"/>
<feBlend mode="normal" in="SourceGraphic" in2="BackgroundImageFix" result="shape"/>
<feGaussianBlur stdDeviation="35" result="effect1_foregroundBlur_20005129_403"/>
</filter>
<filter id="filter1_f_20005129_403" x="300.366" y="162.188" width="233.294" height="617.606" filterUnits="userSpaceOnUse" color-interpolation-filters="sRGB">
<feFlood flood-opacity="0" result="BackgroundImageFix"/>
<feBlend mode="normal" in="SourceGraphic" in2="BackgroundImageFix" result="shape"/>
<feGaussianBlur stdDeviation="15" result="effect1_foregroundBlur_20005129_403"/>
</filter>
<clipPath id="clip0_20005129_403">
<rect width="746" height="936" fill="white"/>
</clipPath>
<clipPath id="clip1_20005129_403">
<rect width="395.97" height="800.649" fill="white" transform="translate(114.714 135.602)"/>
</clipPath>
<clipPath id="clip2_20005129_403">
<rect width="402.287" height="813.421" fill="white" transform="translate(343.714)"/>
</clipPath>
</defs>
</svg>
